<svg width="33" height="33" viewBox="0 0 33 33" fill="none" xmlns="http://www.w3.org/2000/svg">
<g clip-path="url(#clip0_33_454)">
<path d="M16.8215 23.1036C16.0851 23.1036 15.4881 23.7006 15.4881 24.4369C15.4881 25.1733 16.0851 25.7703 16.8215 25.7703H16.8348C17.5712 25.7703 18.1681 25.1733 18.1681 24.4369C18.1681 23.7006 17.5712 23.1036 16.8348 23.1036H16.8215Z" fill="#292F36"/>
<path fill-rule="evenodd" clip-rule="evenodd" d="M10.1548 1.77026C7.94565 1.77026 6.15479 3.56112 6.15479 5.77026V27.1036C6.15479 29.3127 7.94565 31.1036 10.1548 31.1036H23.4881C25.6973 31.1036 27.4881 29.3127 27.4881 27.1036V5.77026C27.4881 3.56112 25.6973 1.77026 23.4881 1.77026H10.1548ZM8.82145 5.77026C8.82145 5.03388 9.41841 4.43693 10.1548 4.43693H23.4881C24.2245 4.43693 24.8215 5.03388 24.8215 5.77026V27.1036C24.8215 27.84 24.2245 28.4369 23.4881 28.4369H10.1548C9.41841 28.4369 8.82145 27.84 8.82145 27.1036V5.77026Z" fill="#292F36"/>
</g>
<defs>
<clipPath id="clip0_33_454">
<rect width="32" height="32" fill="white" transform="translate(0.821533 0.437012)"/>
</clipPath>
</defs>
</svg>
