<svg width="17" height="17" viewBox="0 0 17 17" fill="none" xmlns="http://www.w3.org/2000/svg">
<path d="M8.66669 2.05469C7.08367 2.05475 5.55233 2.6181 4.34666 3.64392C3.141 4.66974 2.33969 6.0911 2.08611 7.65368C1.83253 9.21625 2.14323 10.8181 2.96262 12.1725C3.78201 13.527 5.05661 14.5457 6.55836 15.0463C6.8917 15.1047 7.0167 14.9047 7.0167 14.7297C7.0167 14.5714 7.00836 14.0463 7.00836 13.488C5.33335 13.7963 4.90002 13.0797 4.76669 12.7047C4.61874 12.34 4.3842 12.0168 4.08335 11.763C3.85002 11.638 3.51668 11.3297 4.07501 11.3214C4.2882 11.3445 4.49268 11.4187 4.67111 11.5376C4.84953 11.6566 4.99666 11.8168 5.10002 12.0047C5.1912 12.1685 5.3138 12.3127 5.46081 12.429C5.60782 12.5453 5.77634 12.6315 5.95671 12.6826C6.13708 12.7337 6.32576 12.7487 6.51194 12.7268C6.69812 12.7048 6.87813 12.6463 7.04167 12.5547C7.07053 12.2158 7.22158 11.8989 7.46669 11.663C5.98335 11.4964 4.43335 10.9213 4.43335 8.37137C4.42398 7.7088 4.66848 7.06776 5.11668 6.57971C4.91287 6.00385 4.93672 5.3719 5.18335 4.81304C5.18335 4.81304 5.74166 4.63803 7.01668 5.49637C8.10754 5.19636 9.25916 5.19636 10.35 5.49637C11.625 4.62971 12.1834 4.81304 12.1834 4.81304C12.43 5.37189 12.4539 6.00386 12.25 6.57971C12.6996 7.06692 12.9443 7.70853 12.9334 8.37137C12.9334 10.9297 11.375 11.4964 9.89169 11.663C10.0508 11.8243 10.1733 12.0179 10.251 12.2307C10.3286 12.4435 10.3596 12.6705 10.3417 12.8964C10.3417 13.7881 10.3333 14.5047 10.3333 14.7297C10.3333 14.9047 10.4583 15.113 10.7917 15.0464C12.2908 14.5416 13.5617 13.5205 14.3776 12.1654C15.1935 10.8102 15.5013 9.20924 15.2459 7.64818C14.9906 6.08712 14.1888 4.6676 12.9837 3.64303C11.7785 2.61845 10.2485 2.05551 8.66669 2.05469Z" fill="#292F36"/>
</svg>
