<svg width="15" height="15" viewBox="0 0 15 15" fill="none" xmlns="http://www.w3.org/2000/svg">
<g clip-path="url(#clip0_3_2470)">
<path d="M10.0716 0.761241C9.15392 0.753266 8.26981 1.10605 7.6097 1.7436L7.60368 1.7495L6.60034 2.747C6.37187 2.97415 6.3708 3.34349 6.59794 3.57196C6.82508 3.80043 7.19442 3.80151 7.42289 3.57436L8.42307 2.58C8.86284 2.15671 9.45101 1.92256 10.0615 1.92786C10.6733 1.93318 11.2585 2.17857 11.6911 2.61119C12.1237 3.04381 12.3691 3.62904 12.3744 4.24083C12.3797 4.85103 12.1458 5.43896 11.7229 5.87866L9.97664 7.62487C9.74009 7.86151 9.45535 8.04457 9.14186 8.16151C8.82837 8.27845 8.4934 8.3266 8.15967 8.3027C7.82593 8.2788 7.50124 8.18341 7.20762 8.02299C6.914 7.86257 6.65831 7.64087 6.4579 7.37295C6.26493 7.11497 5.89936 7.06227 5.64138 7.25524C5.3834 7.44821 5.3307 7.81378 5.52367 8.07176C5.82429 8.47365 6.20782 8.80618 6.64826 9.04681C7.08869 9.28744 7.57573 9.43054 8.07633 9.46639C8.57693 9.50224 9.07938 9.43001 9.54961 9.2546C10.0198 9.07919 10.4469 8.8047 10.8017 8.44976L12.5516 6.69983L12.5587 6.6926C13.1963 6.03249 13.549 5.14838 13.5411 4.2307C13.5331 3.31301 13.165 2.43516 12.5161 1.78623C11.8671 1.13731 10.9893 0.769215 10.0716 0.761241Z" fill="#12F7D6"/>
<path d="M6.23855 4.81164C5.73795 4.77579 5.23549 4.84802 4.76526 5.02343C4.29506 5.19883 3.86808 5.47329 3.51328 5.8282L1.76328 7.5782L1.75617 7.58543C1.11862 8.24554 0.765839 9.12965 0.773814 10.0473C0.781788 10.965 1.14988 11.8429 1.79881 12.4918C2.44774 13.1407 3.32558 13.5088 4.24327 13.5168C5.16096 13.5248 6.04507 13.172 6.70517 12.5344L6.7124 12.5273L7.7099 11.5298C7.93771 11.302 7.93771 10.9327 7.7099 10.7049C7.4821 10.4771 7.11275 10.4771 6.88495 10.7049L5.89122 11.6986C5.45152 12.1215 4.8636 12.3555 4.25341 12.3502C3.64161 12.3449 3.05639 12.0995 2.62377 11.6668C2.19115 11.2342 1.94575 10.649 1.94044 10.0372C1.93513 9.427 2.16908 8.83908 2.59202 8.39938L4.33824 6.65316C4.57478 6.41653 4.85953 6.23346 5.17302 6.11652C5.48651 5.99958 5.82147 5.95143 6.15521 5.97533C6.48894 5.99923 6.81363 6.09463 7.10725 6.25505C7.40088 6.41547 7.65657 6.63716 7.85698 6.90508C8.04995 7.16306 8.41552 7.21576 8.6735 7.02279C8.93148 6.82982 8.98417 6.46426 8.7912 6.20628C8.49059 5.80439 8.10705 5.47185 7.66662 5.23122C7.22618 4.99059 6.73915 4.84749 6.23855 4.81164Z" fill="#12F7D6"/>
</g>
<defs>
<clipPath id="clip0_3_2470">
<rect width="14" height="14" fill="white" transform="translate(0.157471 0.139038)"/>
</clipPath>
</defs>
</svg>
