<svg width="15" height="15" viewBox="0 0 15 15" fill="none" xmlns="http://www.w3.org/2000/svg">
<g clip-path="url(#clip0_3_2449)">
<path fill-rule="evenodd" clip-rule="evenodd" d="M7.15755 3.63904C5.86889 3.63904 4.82422 4.68371 4.82422 5.97237C4.82422 7.26104 5.86889 8.3057 7.15755 8.3057C8.44622 8.3057 9.49089 7.26104 9.49089 5.97237C9.49089 4.68371 8.44622 3.63904 7.15755 3.63904ZM5.99089 5.97237C5.99089 5.32804 6.51322 4.8057 7.15755 4.8057C7.80188 4.8057 8.32422 5.32804 8.32422 5.97237C8.32422 6.6167 7.80188 7.13904 7.15755 7.13904C6.51322 7.13904 5.99089 6.6167 5.99089 5.97237Z" fill="#12F7D6"/>
<path fill-rule="evenodd" clip-rule="evenodd" d="M6.83366 14.0409C6.83383 14.041 6.83398 14.0411 7.15755 13.5557L6.83366 14.0409C7.0296 14.1715 7.28519 14.1717 7.48113 14.0411L7.15755 13.5557C7.48113 14.0411 7.48096 14.0412 7.48113 14.0411L7.48311 14.0397L7.487 14.0371L7.50037 14.0281C7.51172 14.0204 7.52792 14.0093 7.54864 13.9949C7.59008 13.9663 7.64961 13.9244 7.72467 13.8702C7.87473 13.7619 8.08717 13.6037 8.34124 13.4014C8.84844 12.9975 9.52624 12.414 10.206 11.6965C11.5417 10.2866 12.9909 8.2485 12.9909 5.97237C12.9909 4.42528 12.3763 2.94154 11.2823 1.84758C10.1884 0.75362 8.70465 0.139038 7.15755 0.139038C5.61046 0.139038 4.12672 0.75362 3.03276 1.84758C1.9388 2.94154 1.32422 4.42528 1.32422 5.97237C1.32422 8.2485 2.77337 10.2866 4.10908 11.6965C4.78886 12.414 5.46666 12.9975 5.97387 13.4014C6.22793 13.6037 6.44037 13.7619 6.59043 13.8702C6.66549 13.9244 6.72503 13.9663 6.76646 13.9949C6.78718 14.0093 6.80338 14.0204 6.81474 14.0281L6.82811 14.0371L6.83199 14.0397L6.83366 14.0409ZM3.85772 2.67254C4.73289 1.79737 5.91988 1.3057 7.15755 1.3057C8.39523 1.3057 9.58221 1.79737 10.4574 2.67254C11.3326 3.54771 11.8242 4.73469 11.8242 5.97237C11.8242 7.77957 10.6484 9.53318 9.35908 10.8941C8.72636 11.562 8.09166 12.1087 7.61449 12.4887C7.4369 12.6301 7.28179 12.7479 7.15755 12.8397C7.03332 12.7479 6.8782 12.6301 6.70061 12.4887C6.22344 12.1087 5.58874 11.562 4.95602 10.8941C3.66673 9.53318 2.49089 7.77957 2.49089 5.97237C2.49089 4.73469 2.98255 3.54771 3.85772 2.67254Z" fill="#12F7D6"/>
</g>
<defs>
<clipPath id="clip0_3_2449">
<rect width="14" height="14" fill="white" transform="translate(0.157471 0.139038)"/>
</clipPath>
</defs>
</svg>
