<svg width="32" height="147" viewBox="0 0 32 147" fill="none" xmlns="http://www.w3.org/2000/svg">
<g clip-path="url(#clip0_569_1350)">
<path fill-rule="evenodd" clip-rule="evenodd" d="M0 16.437C0 7.60045 7.16344 0.437012 16 0.437012C24.8366 0.437012 32 7.60045 32 16.437V28.437C32 37.2736 24.8366 44.437 16 44.437H14V44.3132C6.10738 43.329 0 36.5962 0 28.437V16.437ZM16 40.437C22.6274 40.437 28 35.0644 28 28.437V16.437C28 9.80959 22.6274 4.43701 16 4.43701C9.37258 4.43701 4 9.80959 4 16.437V28.437C4 35.0644 9.37258 40.437 16 40.437Z" fill="#12F7D6"/>
<path d="M17.3334 9.60364V16.937H14.6667V9.60364H17.3334Z" fill="#12F7D6"/>
</g>
<path d="M16.5 60.437C16.5 60.1609 16.2761 59.937 16 59.937C15.7239 59.937 15.5 60.1609 15.5 60.437H16.5ZM16 143.324L18.8868 140.437L16 137.55L13.1132 140.437L16 143.324ZM15.5 63.2942C15.5 63.5703 15.7239 63.7942 16 63.7942C16.2761 63.7942 16.5 63.5703 16.5 63.2942H15.5ZM16.5 69.0084C16.5 68.7323 16.2761 68.5084 16 68.5084C15.7239 68.5084 15.5 68.7323 15.5 69.0084H16.5ZM15.5 74.7227C15.5 74.9989 15.7239 75.2227 16 75.2227C16.2761 75.2227 16.5 74.9989 16.5 74.7227H15.5ZM16.5 80.437C16.5 80.1609 16.2761 79.937 16 79.937C15.7239 79.937 15.5 80.1609 15.5 80.437H16.5ZM15.5 86.1513C15.5 86.4274 15.7239 86.6513 16 86.6513C16.2761 86.6513 16.5 86.4274 16.5 86.1513H15.5ZM16.5 91.8656C16.5 91.5894 16.2761 91.3656 16 91.3656C15.7239 91.3656 15.5 91.5894 15.5 91.8656H16.5ZM15.5 97.5799C15.5 97.856 15.7239 98.0799 16 98.0799C16.2761 98.0799 16.5 97.856 16.5 97.5799H15.5ZM16.5 103.294C16.5 103.018 16.2761 102.794 16 102.794C15.7239 102.794 15.5 103.018 15.5 103.294H16.5ZM15.5 109.008C15.5 109.285 15.7239 109.508 16 109.508C16.2761 109.508 16.5 109.285 16.5 109.008H15.5ZM16.5 114.723C16.5 114.447 16.2761 114.223 16 114.223C15.7239 114.223 15.5 114.447 15.5 114.723H16.5ZM15.5 120.437C15.5 120.713 15.7239 120.937 16 120.937C16.2761 120.937 16.5 120.713 16.5 120.437H15.5ZM16.5 126.151C16.5 125.875 16.2761 125.651 16 125.651C15.7239 125.651 15.5 125.875 15.5 126.151H16.5ZM15.5 131.866C15.5 132.142 15.7239 132.366 16 132.366C16.2761 132.366 16.5 132.142 16.5 131.866H15.5ZM16.5 137.58C16.5 137.304 16.2761 137.08 16 137.08C15.7239 137.08 15.5 137.304 15.5 137.58H16.5ZM15.5 60.437V63.2942H16.5V60.437H15.5ZM15.5 69.0084V74.7227H16.5L16.5 69.0084H15.5ZM15.5 80.437L15.5 86.1513H16.5V80.437H15.5ZM15.5 91.8656L15.5 97.5799H16.5V91.8656H15.5ZM15.5 103.294L15.5 109.008H16.5V103.294H15.5ZM15.5 114.723V120.437H16.5V114.723H15.5ZM15.5 126.151V131.866H16.5L16.5 126.151H15.5ZM15.5 137.58V140.437H16.5V137.58H15.5ZM17 60.437C17 59.8847 16.5523 59.437 16 59.437C15.4477 59.437 15 59.8847 15 60.437H17ZM16 146.211L21.7735 140.437L16 134.664L10.2265 140.437L16 146.211ZM15 63.2942C15 63.8464 15.4477 64.2942 16 64.2942C16.5523 64.2942 17 63.8464 17 63.2942H15ZM17 69.0084C17 68.4562 16.5523 68.0084 16 68.0084C15.4477 68.0084 15 68.4562 15 69.0084H17ZM15 74.7227C15 75.275 15.4477 75.7227 16 75.7227C16.5523 75.7227 17 75.275 17 74.7227H15ZM17 80.437C17 79.8847 16.5523 79.437 16 79.437C15.4477 79.437 15 79.8847 15 80.437H17ZM15 86.1513C15 86.7036 15.4477 87.1513 16 87.1513C16.5523 87.1513 17 86.7036 17 86.1513H15ZM17 91.8656C17 91.3133 16.5523 90.8656 16 90.8656C15.4477 90.8656 15 91.3133 15 91.8656H17ZM15 97.5799C15 98.1322 15.4477 98.5799 16 98.5799C16.5523 98.5799 17 98.1322 17 97.5799H15ZM17 103.294C17 102.742 16.5523 102.294 16 102.294C15.4477 102.294 15 102.742 15 103.294H17ZM15 109.008C15 109.561 15.4477 110.008 16 110.008C16.5523 110.008 17 109.561 17 109.008H15ZM17 114.723C17 114.17 16.5523 113.723 16 113.723C15.4477 113.723 15 114.17 15 114.723H17ZM15 120.437C15 120.989 15.4477 121.437 16 121.437C16.5523 121.437 17 120.989 17 120.437H15ZM17 126.151C17 125.599 16.5523 125.151 16 125.151C15.4477 125.151 15 125.599 15 126.151H17ZM15 131.866C15 132.418 15.4477 132.866 16 132.866C16.5523 132.866 17 132.418 17 131.866H15ZM17 137.58C17 137.028 16.5523 136.58 16 136.58C15.4477 136.58 15 137.028 15 137.58H17ZM15 60.437V63.2942H17V60.437H15ZM15 69.0084V74.7227H17L17 69.0084H15ZM15 80.437L15 86.1513H17V80.437H15ZM15 91.8656L15 97.5799H17V91.8656H15ZM15 103.294L15 109.008H17V103.294H15ZM15 114.723V120.437H17V114.723H15ZM15 126.151V131.866H17L17 126.151H15ZM15 137.58V140.437H17V137.58H15Z" fill="white"/>
<defs>
<clipPath id="clip0_569_1350">
<rect width="32" height="44" fill="white" transform="translate(0 0.437012)"/>
</clipPath>
</defs>
</svg>
