<svg width="64" height="65" viewBox="0 0 64 65" fill="none" xmlns="http://www.w3.org/2000/svg">
<path d="M22.8086 7.15574C21.118 7.04363 19.4564 7.34612 18 8.18699C16.0581 9.30816 14.7649 11.2219 14.0703 13.4253C13.3757 15.6286 13.2152 18.1679 13.4688 20.9409C13.4944 21.2218 13.5438 21.5145 13.5781 21.8003C13.313 21.9136 13.0339 22.0178 12.7773 22.1362C10.2491 23.3031 8.13119 24.7103 6.57031 26.4136C5.00944 28.1168 4 30.1947 4 32.437C4 34.6793 5.00944 36.7572 6.57031 38.4604C8.13119 40.1637 10.2491 41.5709 12.7773 42.7378C13.0339 42.8562 13.313 42.9603 13.5781 43.0737C13.5438 43.3594 13.4944 43.6522 13.4688 43.9331C13.2152 46.7061 13.3757 49.2453 14.0703 51.4487C14.7649 53.6521 16.0581 55.5658 18 56.687C19.9419 57.8082 22.2445 57.9723 24.5 57.4721C26.7555 56.972 29.0339 55.84 31.3086 54.2339C31.5389 54.0713 31.7698 53.8829 32 53.7104C32.2302 53.8829 32.4611 54.0713 32.6914 54.2339C34.9661 55.84 37.2445 56.972 39.5 57.4721C41.7555 57.9723 44.0581 57.8082 46 56.687C47.9419 55.5658 49.2351 53.6521 49.9297 51.4487C50.6243 49.2453 50.7848 46.7061 50.5312 43.9331C50.5056 43.6522 50.4562 43.3594 50.4219 43.0737C50.687 42.9603 50.9661 42.8562 51.2227 42.7378C53.7509 41.5709 55.8688 40.1637 57.4297 38.4604C58.9906 36.7572 60 34.6793 60 32.437C60 30.1947 58.9906 28.1168 57.4297 26.4136C55.8688 24.7103 53.7509 23.3031 51.2227 22.1362C50.9661 22.0178 50.687 21.9136 50.4219 21.8003C50.4562 21.5145 50.5056 21.2218 50.5312 20.9409C50.7848 18.1679 50.6243 15.6286 49.9297 13.4253C49.2351 11.2219 47.9419 9.30816 46 8.18699C44.0581 7.06582 41.7555 6.90169 39.5 7.40183C37.2445 7.90198 34.9661 9.03402 32.6914 10.6401C32.4611 10.8027 32.2302 10.9911 32 11.1636C31.7698 10.9911 31.5389 10.8027 31.3086 10.6401C29.0339 9.03402 26.7555 7.90198 24.5 7.40183C23.9361 7.2768 23.3721 7.19311 22.8086 7.15574ZM22.5469 11.1401C22.8877 11.1658 23.25 11.2223 23.6367 11.3081C25.1481 11.6432 26.9581 12.4915 28.8672 13.8198C27.2772 15.3281 25.7124 17.0441 24.2188 18.9643C21.8117 19.2977 19.5444 19.7914 17.4453 20.4136C17.2498 18.097 17.4175 16.1044 17.8828 14.6284C18.3592 13.1173 19.0722 12.1875 20 11.6518C20.6959 11.2501 21.5244 11.0631 22.5469 11.1401ZM41.4531 11.1401C42.4756 11.0631 43.3041 11.2501 44 11.6518C44.9278 12.1875 45.6408 13.1173 46.1172 14.6284C46.5825 16.1044 46.7502 18.097 46.5547 20.4136C44.4556 19.7914 42.1883 19.2977 39.7812 18.9643C38.2876 17.0441 36.7228 15.3281 35.1328 13.8198C37.0419 12.4915 38.8519 11.6432 40.3633 11.3081C40.75 11.2223 41.1123 11.1658 41.4531 11.1401ZM32 16.355C32.703 17.0049 33.4047 17.7277 34.1055 18.4839C33.408 18.4592 32.711 18.437 32 18.437C31.289 18.437 30.592 18.4592 29.8945 18.4839C30.5953 17.7277 31.297 17.0049 32 16.355ZM32 22.437C33.9291 22.437 35.7988 22.5504 37.5977 22.7417C38.6627 24.2039 39.6956 25.7664 40.6602 27.437C41.6248 29.1077 42.4615 30.7834 43.1953 32.437C42.4615 34.0906 41.6248 35.7662 40.6602 37.437C39.6956 39.1076 38.6627 40.6701 37.5977 42.1323C35.7988 42.3236 33.9291 42.437 32 42.437C30.0709 42.437 28.2012 42.3236 26.4023 42.1323C25.3373 40.6701 24.3044 39.1076 23.3398 37.437C22.3752 35.7662 21.5385 34.0906 20.8047 32.437C21.5385 30.7834 22.3752 29.1077 23.3398 27.437C24.3044 25.7664 25.3373 24.2039 26.4023 22.7417C28.2012 22.5504 30.0709 22.437 32 22.437ZM20.9688 23.6362C20.5987 24.2278 20.2305 24.8213 19.875 25.437C19.5195 26.0527 19.1906 26.6683 18.8633 27.2846C18.5592 26.3011 18.2854 25.3304 18.0742 24.3979C18.9882 24.1142 19.9639 23.8649 20.9688 23.6362ZM43.0312 23.6362C44.0361 23.8649 45.0118 24.1142 45.9258 24.3979C45.7146 25.3304 45.4408 26.3011 45.1367 27.2846C44.8094 26.6683 44.4805 26.0527 44.125 25.437C43.7695 24.8213 43.4013 24.2278 43.0312 23.6362ZM14.3086 25.8432C14.8197 27.974 15.5255 30.1838 16.4414 32.437C15.5255 34.6902 14.8197 36.9 14.3086 39.0307C12.2056 38.042 10.5648 36.8979 9.51953 35.7573C8.44906 34.5892 8 33.5084 8 32.437C8 31.3656 8.44906 30.2848 9.51953 29.1167C10.5648 27.9761 12.2056 26.832 14.3086 25.8432ZM49.6914 25.8432C51.7944 26.832 53.4352 27.9761 54.4805 29.1167C55.5509 30.2848 56 31.3656 56 32.437C56 33.5084 55.5509 34.5892 54.4805 35.7573C53.4352 36.8979 51.7944 38.042 49.6914 39.0307C49.1803 36.9 48.4745 34.6902 47.5586 32.437C48.4745 30.1838 49.1803 27.974 49.6914 25.8432ZM32 26.437C28.71 26.437 26 29.147 26 32.437C26 35.727 28.71 38.437 32 38.437C35.29 38.437 38 35.727 38 32.437C38 29.147 35.29 26.437 32 26.437ZM32 30.437C33.1283 30.437 34 31.3087 34 32.437C34 33.5652 33.1283 34.437 32 34.437C30.8717 34.437 30 33.5652 30 32.437C30 31.3087 30.8717 30.437 32 30.437ZM18.8633 37.5893C19.1906 38.2056 19.5195 38.8213 19.875 39.437C20.2305 40.0527 20.5987 40.6461 20.9688 41.2378C19.9639 41.009 18.9882 40.7598 18.0742 40.4761C18.2854 39.5436 18.5592 38.5729 18.8633 37.5893ZM45.1367 37.5893C45.4408 38.5729 45.7146 39.5436 45.9258 40.4761C45.0118 40.7598 44.0361 41.009 43.0312 41.2378C43.4013 40.6461 43.7695 40.0527 44.125 39.437C44.4805 38.8213 44.8094 38.2056 45.1367 37.5893ZM17.4453 44.4604C19.5444 45.0826 21.8117 45.5763 24.2188 45.9096C25.7124 47.8299 27.2772 49.5458 28.8672 51.0542C26.9581 52.3825 25.1481 53.2308 23.6367 53.5659C22.0899 53.9089 20.9278 53.7578 20 53.2221C19.0722 52.6865 18.3592 51.7567 17.8828 50.2456C17.4175 48.7696 17.2498 46.7769 17.4453 44.4604ZM46.5547 44.4604C46.7502 46.7769 46.5825 48.7696 46.1172 50.2456C45.6408 51.7567 44.9278 52.6865 44 53.2221C43.0722 53.7578 41.9101 53.9089 40.3633 53.5659C38.8519 53.2308 37.0419 52.3825 35.1328 51.0542C36.7228 49.5458 38.2876 47.8299 39.7812 45.9096C42.1883 45.5763 44.4556 45.0826 46.5547 44.4604ZM29.8945 46.3901C30.592 46.4148 31.289 46.437 32 46.437C32.711 46.437 33.408 46.4148 34.1055 46.3901C33.4047 47.1463 32.703 47.8691 32 48.519C31.297 47.8691 30.5953 47.1463 29.8945 46.3901Z" fill="white"/>
</svg>
