<svg width="33" height="33" viewBox="0 0 33 33" fill="none" xmlns="http://www.w3.org/2000/svg">
<g clip-path="url(#clip0_33_425)">
<path fill-rule="evenodd" clip-rule="evenodd" d="M17.4636 24.4371H26.797C29.0061 24.4371 30.797 22.6462 30.797 20.4371V7.10376C30.797 4.89462 29.0061 3.10376 26.797 3.10376H5.46362C3.25448 3.10376 1.46362 4.89462 1.46362 7.10376V20.4371C1.46362 22.6462 3.25448 24.4371 5.46362 24.4371H14.797V27.1038H10.797C10.0606 27.1038 9.46362 27.7007 9.46362 28.4371C9.46362 29.1735 10.0606 29.7704 10.797 29.7704H21.4636C22.2 29.7704 22.797 29.1735 22.797 28.4371C22.797 27.7007 22.2 27.1038 21.4636 27.1038H17.4636V24.4371ZM5.46362 5.77043C4.72724 5.77043 4.13029 6.36738 4.13029 7.10376V20.4371C4.13029 21.1735 4.72724 21.7704 5.46362 21.7704H26.797C27.5333 21.7704 28.1303 21.1735 28.1303 20.4371V7.10376C28.1303 6.36738 27.5333 5.77043 26.797 5.77043H5.46362Z" fill="#292F36"/>
</g>
<defs>
<clipPath id="clip0_33_425">
<rect width="32" height="32" fill="white" transform="translate(0.130371 0.437012)"/>
</clipPath>
</defs>
</svg>
