<svg width="17" height="17" viewBox="0 0 17 17" fill="none" xmlns="http://www.w3.org/2000/svg">
<path d="M6.99487 3.01025L6.60425 3.05713C6.60425 3.05713 4.85229 3.24854 3.573 4.27588H3.55737L3.54175 4.2915C3.25464 4.55518 3.12964 4.87939 2.93237 5.354C2.73511 5.82861 2.52417 6.43408 2.33862 7.104C1.96753 8.4458 1.66675 10.0708 1.66675 11.5571V11.6821L1.72925 11.8071C2.19214 12.6196 3.0144 13.1372 3.77612 13.4946C4.53784 13.8521 5.19604 14.0415 5.65112 14.0571L5.948 14.0728L6.10425 13.8071L6.65112 12.8384C7.2312 12.9692 7.89917 13.0571 8.66675 13.0571C9.43433 13.0571 10.1023 12.9692 10.6824 12.8384L11.2292 13.8071L11.3855 14.0728L11.6824 14.0571C12.1375 14.0415 12.7957 13.8521 13.5574 13.4946C14.3191 13.1372 15.1414 12.6196 15.6042 11.8071L15.6667 11.6821V11.5571C15.6667 10.0708 15.366 8.4458 14.9949 7.104C14.8093 6.43408 14.5984 5.82861 14.4011 5.354C14.2039 4.87939 14.0789 4.55518 13.7917 4.2915L13.7761 4.27588H13.7605C12.4812 3.24854 10.7292 3.05713 10.7292 3.05713L10.3386 3.01025L10.198 3.36963C10.198 3.36963 10.0535 3.73486 9.96362 4.15088C9.39722 4.07471 8.93433 4.05713 8.66675 4.05713C8.39917 4.05713 7.93628 4.07471 7.36987 4.15088C7.28003 3.73486 7.1355 3.36963 7.1355 3.36963L6.99487 3.01025ZM6.30737 4.15088C6.32886 4.22119 6.35034 4.28174 6.36987 4.33838C5.72339 4.49854 5.03394 4.74268 4.40112 5.13525L4.93237 5.979C6.22925 5.17432 8.09253 5.05713 8.66675 5.05713C9.24097 5.05713 11.1042 5.17432 12.4011 5.979L12.9324 5.13525C12.2996 4.74268 11.6101 4.49854 10.9636 4.33838C10.9832 4.28174 11.0046 4.22119 11.0261 4.15088C11.4929 4.24463 12.3835 4.45947 13.1199 5.0415C13.116 5.04346 13.3074 5.33252 13.4792 5.74463C13.655 6.16846 13.8503 6.73291 14.0261 7.36963C14.364 8.59033 14.6296 10.0767 14.6511 11.3853C14.3367 11.8657 13.7527 12.2993 13.1355 12.5884C12.5964 12.8403 12.1707 12.9321 11.9167 12.979L11.6667 12.5571C11.8152 12.5024 11.9617 12.4419 12.0886 12.3853C12.8582 12.0474 13.2761 11.6821 13.2761 11.6821L12.6199 10.9321C12.6199 10.9321 12.3386 11.1899 11.6824 11.479C11.0261 11.7681 10.0242 12.0571 8.66675 12.0571C7.30933 12.0571 6.30737 11.7681 5.65112 11.479C4.99487 11.1899 4.71362 10.9321 4.71362 10.9321L4.05737 11.6821C4.05737 11.6821 4.47534 12.0474 5.24487 12.3853C5.37183 12.4419 5.51831 12.5024 5.66675 12.5571L5.41675 12.979C5.16284 12.9321 4.73706 12.8403 4.198 12.5884C3.58081 12.2993 2.99683 11.8657 2.68237 11.3853C2.70386 10.0767 2.96948 8.59033 3.30737 7.36963C3.48315 6.73291 3.67847 6.16846 3.85425 5.74463C4.02612 5.33252 4.21753 5.04346 4.21362 5.0415C4.94995 4.45947 5.84058 4.24463 6.30737 4.15088ZM6.91675 7.55713C6.53003 7.55713 6.18823 7.77783 5.97925 8.05713C5.77026 8.33643 5.66675 8.68018 5.66675 9.05713C5.66675 9.43408 5.77026 9.77783 5.97925 10.0571C6.18823 10.3364 6.53003 10.5571 6.91675 10.5571C7.30347 10.5571 7.64526 10.3364 7.85425 10.0571C8.06323 9.77783 8.16675 9.43408 8.16675 9.05713C8.16675 8.68018 8.06323 8.33643 7.85425 8.05713C7.64526 7.77783 7.30347 7.55713 6.91675 7.55713ZM10.4167 7.55713C10.03 7.55713 9.68823 7.77783 9.47925 8.05713C9.27026 8.33643 9.16675 8.68018 9.16675 9.05713C9.16675 9.43408 9.27026 9.77783 9.47925 10.0571C9.68823 10.3364 10.03 10.5571 10.4167 10.5571C10.8035 10.5571 11.1453 10.3364 11.3542 10.0571C11.5632 9.77783 11.6667 9.43408 11.6667 9.05713C11.6667 8.68018 11.5632 8.33643 11.3542 8.05713C11.1453 7.77783 10.8035 7.55713 10.4167 7.55713ZM6.91675 8.55713C6.94409 8.55713 6.97925 8.56689 7.04175 8.65088C7.10425 8.73486 7.16675 8.88135 7.16675 9.05713C7.16675 9.23291 7.10425 9.37939 7.04175 9.46338C6.97925 9.54736 6.94409 9.55713 6.91675 9.55713C6.8894 9.55713 6.85425 9.54736 6.79175 9.46338C6.72925 9.37939 6.66675 9.23291 6.66675 9.05713C6.66675 8.88135 6.72925 8.73486 6.79175 8.65088C6.85425 8.56689 6.8894 8.55713 6.91675 8.55713ZM10.4167 8.55713C10.4441 8.55713 10.4792 8.56689 10.5417 8.65088C10.6042 8.73486 10.6667 8.88135 10.6667 9.05713C10.6667 9.23291 10.6042 9.37939 10.5417 9.46338C10.4792 9.54736 10.4441 9.55713 10.4167 9.55713C10.3894 9.55713 10.3542 9.54736 10.2917 9.46338C10.2292 9.37939 10.1667 9.23291 10.1667 9.05713C10.1667 8.88135 10.2292 8.73486 10.2917 8.65088C10.3542 8.56689 10.3894 8.55713 10.4167 8.55713Z" fill="#292F36"/>
</svg>
