<svg width="25" height="25" viewBox="0 0 25 25" fill="none" xmlns="http://www.w3.org/2000/svg">
<path d="M13.1575 3.24701C13.1575 2.69472 12.7098 2.24701 12.1575 2.24701C11.6052 2.24701 11.1575 2.69472 11.1575 3.24701V12.8328L7.86458 9.5399C7.47405 9.14938 6.84089 9.14938 6.45036 9.5399C6.05984 9.93043 6.05984 10.5636 6.45036 10.9541L11.4504 15.9541C11.8409 16.3446 12.4741 16.3446 12.8646 15.9541L17.8646 10.9541C18.2551 10.5636 18.2551 9.93043 17.8646 9.5399C17.4741 9.14938 16.8409 9.14938 16.4504 9.5399L13.1575 12.8328V3.24701Z" fill="#292F36"/>
<path d="M3.15747 14.247C3.70976 14.247 4.15747 14.6947 4.15747 15.247V19.247C4.15747 19.5122 4.26283 19.7666 4.45036 19.9541C4.6379 20.1417 4.89225 20.247 5.15747 20.247H19.1575C19.4227 20.247 19.677 20.1417 19.8646 19.9541C20.0521 19.7666 20.1575 19.5122 20.1575 19.247V15.247C20.1575 14.6947 20.6052 14.247 21.1575 14.247C21.7098 14.247 22.1575 14.6947 22.1575 15.247V19.247C22.1575 20.0427 21.8414 20.8057 21.2788 21.3683C20.7162 21.9309 19.9531 22.247 19.1575 22.247H5.15747C4.36182 22.247 3.59876 21.9309 3.03615 21.3683C2.47354 20.8057 2.15747 20.0427 2.15747 19.247V15.247C2.15747 14.6947 2.60519 14.247 3.15747 14.247Z" fill="#292F36"/>
</svg>
