<svg width="64" height="65" viewBox="0 0 64 65" fill="none" xmlns="http://www.w3.org/2000/svg">
<path d="M10.4375 8.43701L10.625 10.6245L14.125 50.187L14.25 51.562L15.5625 51.937L31.4375 56.3745L31.9375 56.4995L32.5 56.3745L48.375 51.9995L49.6875 51.6245L49.8125 50.2495L53.375 10.6245L53.5625 8.49951H51.375L12.625 8.43701H10.4375ZM14.8125 12.437L49.1875 12.4995L45.9375 48.4995L32 52.3745L18 48.4995L14.8125 12.437ZM19.625 18.437L20.9375 33.3745H38.0625L37.5 39.812L32 41.312H31.9375L26.4375 39.812L26.125 35.687H21.125L21.8125 43.6245L31.9375 46.437H32L42.125 43.6245L43.5 28.437H25.4375L25 23.3745H43.9375L44.375 18.437H19.625Z" fill="white"/>
</svg>
