<svg width="15" height="15" viewBox="0 0 15 15" fill="none" xmlns="http://www.w3.org/2000/svg">
<g clip-path="url(#clip0_3_2463)">
<path fill-rule="evenodd" clip-rule="evenodd" d="M5.99072 1.30573C5.52659 1.30573 5.08147 1.4901 4.75329 1.81829C4.4251 2.14648 4.24072 2.5916 4.24072 3.05573V3.63906H2.49072C1.52422 3.63906 0.740723 4.42256 0.740723 5.38906V11.2224C0.740723 12.1889 1.52422 12.9724 2.49072 12.9724H11.8241C12.7906 12.9724 13.5741 12.1889 13.5741 11.2224V5.38906C13.5741 4.42256 12.7906 3.63906 11.8241 3.63906H10.0741V3.05573C10.0741 2.5916 9.88968 2.14648 9.56149 1.81829C9.2333 1.4901 8.78819 1.30573 8.32406 1.30573H5.99072ZM8.90739 3.63906V3.05573C8.90739 2.90102 8.84593 2.75264 8.73654 2.64325C8.62714 2.53385 8.47877 2.47239 8.32406 2.47239H5.99072C5.83601 2.47239 5.68764 2.53385 5.57824 2.64325C5.46885 2.75264 5.40739 2.90102 5.40739 3.05573V3.63906H8.90739ZM5.40739 4.80572H8.90739V11.8057H5.40739V4.80572ZM4.24072 4.80572H2.49072C2.16856 4.80572 1.90739 5.06689 1.90739 5.38906V11.2224C1.90739 11.5446 2.16856 11.8057 2.49072 11.8057H4.24072V4.80572ZM10.0741 11.8057V4.80572H11.8241C12.1462 4.80572 12.4074 5.06689 12.4074 5.38906V11.2224C12.4074 11.5446 12.1462 11.8057 11.8241 11.8057H10.0741Z" fill="#12F7D6"/>
</g>
<defs>
<clipPath id="clip0_3_2463">
<rect width="14" height="14" fill="white" transform="translate(0.157471 0.139038)"/>
</clipPath>
</defs>
</svg>
