<svg width="64" height="65" viewBox="0 0 64 65" fill="none" xmlns="http://www.w3.org/2000/svg">
<path d="M31.9883 6.43701C31.2583 6.43701 30.5284 6.61607 29.8984 6.97607L10.0781 18.4175C8.79813 19.1575 8 20.5586 8 22.0386V42.7964C8 44.2964 8.79813 45.6775 10.0781 46.4175L15.2812 49.4175C17.8013 50.6575 18.6998 50.6558 19.8398 50.6558C23.5798 50.6558 25.7188 48.3961 25.7188 44.4761V23.0581C25.7188 22.7381 25.4606 22.4761 25.1406 22.4761H22.6406C22.3006 22.4761 22.0586 22.7381 22.0586 23.0581V44.4565C22.0586 46.2165 20.2408 47.9361 17.3008 46.4761L11.8594 43.3354C11.6594 43.2355 11.5391 43.0164 11.5391 42.7964V22.0581C11.5391 21.8181 11.6594 21.6156 11.8594 21.4956L31.6797 10.0581C31.8597 9.93811 32.1008 9.93811 32.3008 10.0581L52.1211 21.4956C52.3211 21.6156 52.4414 21.8186 52.4414 22.0386V42.7964C52.4414 43.0164 52.3206 43.2355 52.1406 43.3354L32.3008 54.7964C32.1208 54.8964 31.8597 54.8964 31.6797 54.7964L26.5781 51.7769C26.4381 51.6769 26.2416 51.6578 26.1016 51.7378C24.6816 52.5378 24.4216 52.6372 23.1016 53.0972C22.7816 53.1972 22.2812 53.3965 23.2812 53.9565L29.8984 57.8784C30.5384 58.2384 31.2605 58.437 31.9805 58.437C32.7205 58.437 33.4381 58.2384 34.0781 57.8784L53.9219 46.4175C55.2019 45.6775 56 44.2964 56 42.7964V22.0581C56 20.5581 55.2019 19.177 53.9219 18.437L34.0781 6.97607C33.4481 6.61607 32.7183 6.43701 31.9883 6.43701ZM37.3203 22.4487C31.6603 22.4487 28.2812 24.8472 28.2812 28.8472C28.2812 33.1872 31.6381 34.3853 37.0781 34.9253C43.5781 35.5653 44.0781 36.5281 44.0781 37.8081C44.0781 40.0081 42.3011 40.9487 38.1211 40.9487C32.8611 40.9487 31.7003 39.6269 31.3203 37.0269C31.2803 36.7469 31.0417 36.5464 30.7617 36.5464H28.1797C27.8597 36.5464 27.6211 36.8089 27.6211 37.1089C27.6211 40.4489 29.4411 44.4253 38.1211 44.4253C44.4011 44.4253 48 41.9484 48 37.6284C48 33.3484 45.0995 32.2062 39.0195 31.3862C32.8395 30.5862 32.2188 30.1661 32.2188 28.7261C32.2188 27.5261 32.7603 25.9487 37.3203 25.9487C41.3803 25.9487 42.8995 26.8259 43.5195 29.5659C43.5795 29.8259 43.7981 30.0269 44.0781 30.0269H46.6602C46.8202 30.0269 46.9581 29.9476 47.0781 29.8276C47.1781 29.7276 47.2388 29.5662 47.2188 29.3862C46.8187 24.6662 43.6803 22.4487 37.3203 22.4487Z" fill="white"/>
</svg>
