<svg width="160" height="11" viewBox="0 0 160 11" fill="none" xmlns="http://www.w3.org/2000/svg">
<path d="M0.666667 5.43701C0.666667 8.38253 3.05448 10.7703 6 10.7703C8.94552 10.7703 11.3333 8.38253 11.3333 5.43701C11.3333 2.49149 8.94552 0.103678 6 0.103678C3.05448 0.103678 0.666667 2.49149 0.666667 5.43701ZM148.667 5.43701C148.667 8.38253 151.054 10.7703 154 10.7703C156.946 10.7703 159.333 8.38253 159.333 5.43701C159.333 2.49149 156.946 0.103678 154 0.103678C151.054 0.103678 148.667 2.49149 148.667 5.43701ZM6 6.43701H154V4.43701H6V6.43701Z" fill="#12F7D6"/>
</svg>
