<svg width="24" height="25" viewBox="0 0 24 25" fill="none" xmlns="http://www.w3.org/2000/svg">
<path fill-rule="evenodd" clip-rule="evenodd" d="M22.7071 1.85005C22.9306 2.07353 23.0262 2.37648 22.9939 2.66794C22.9848 2.74964 22.9657 2.83045 22.9366 2.90834L15.9439 22.8875C15.8084 23.2745 15.4504 23.5396 15.0408 23.5563C14.6311 23.573 14.2527 23.338 14.0862 22.9633L10.2424 14.3148L1.59387 10.471C1.21919 10.3044 0.984122 9.92607 1.00084 9.51639C1.01755 9.10671 1.28265 8.74875 1.66965 8.6133L21.6488 1.62061C21.7272 1.59126 21.8085 1.5721 21.8907 1.56311C21.9511 1.55647 22.0117 1.55539 22.0717 1.55971C22.3032 1.57626 22.5301 1.67304 22.7071 1.85005ZM18.1943 4.94863L4.71108 9.66776L10.7785 12.3644L18.1943 4.94863ZM12.1928 13.7786L19.6085 6.36284L14.8894 19.8461L12.1928 13.7786Z" fill="#292F36"/>
</svg>
