<svg width="20" height="20" viewBox="0 0 20 20" fill="none" xmlns="http://www.w3.org/2000/svg">
<path d="M12.9941 14.6419C9.0647 14.6419 5.8678 11.3357 5.86672 7.27317C5.8678 6.24336 6.67886 5.40594 7.67278 5.40594C7.77497 5.40594 7.87608 5.41484 7.97289 5.43263C8.18587 5.46933 8.38811 5.54385 8.5742 5.65617C8.60109 5.67285 8.61937 5.69956 8.62368 5.7307L9.03888 8.43642C9.04426 8.46867 9.03458 8.49981 9.01415 8.52317C8.78503 8.78562 8.49244 8.9747 8.16651 9.06922L8.00947 9.11481L8.06862 9.27161C8.60431 10.6818 9.69505 11.8083 11.0601 12.3644L11.2118 12.4266L11.2558 12.2643C11.3473 11.9273 11.5301 11.6248 11.784 11.3879C11.8023 11.3701 11.827 11.3612 11.8518 11.3612C11.8571 11.3612 11.8625 11.3612 11.869 11.3624L14.4861 11.7916C14.5173 11.7972 14.5431 11.815 14.5592 11.8428C14.6668 12.0352 14.7389 12.2454 14.7755 12.4656C14.7927 12.5634 14.8002 12.6668 14.8002 12.7747C14.8002 13.8034 13.9902 14.6408 12.9941 14.6419Z" fill="#12F7D6"/>
<path d="M19.9624 9.10809C19.7504 6.63256 18.6533 4.33608 16.873 2.64235C15.082 0.938614 12.7586 0 10.3286 0C4.99543 0 0.656171 4.48621 0.656171 10C0.656171 11.8505 1.1499 13.6532 2.08466 15.2235L0 19.9945L6.67456 19.2594C7.83521 19.7509 9.06362 20 10.3275 20C10.6599 20 11.0009 19.9822 11.343 19.9455C11.6442 19.9121 11.9486 19.8632 12.2476 19.801C16.7138 18.8679 19.9742 14.7698 20 10.0534V10C20 9.69973 19.9871 9.39946 19.9613 9.10921L19.9624 9.10809ZM6.93165 17.1653L3.23886 17.5723L4.34143 15.0467L4.12091 14.7409C4.10478 14.7187 4.08864 14.6964 4.07036 14.6708C3.11301 13.3041 2.60743 11.6893 2.60743 10.0011C2.60743 5.59942 6.0711 2.01845 10.3286 2.01845C14.3172 2.01845 17.6981 5.23577 18.024 9.34276C18.0412 9.56295 18.0509 9.78425 18.0509 10.0022C18.0509 10.0645 18.0498 10.1257 18.0487 10.1913C17.967 13.8734 15.4789 17.0007 11.9981 17.7969C11.7324 17.8581 11.4602 17.9048 11.1892 17.9348C10.9073 17.9682 10.618 17.9849 10.3308 17.9849C9.30781 17.9849 8.31389 17.7803 7.37482 17.3755C7.27048 17.3321 7.16829 17.2854 7.07255 17.2376L6.93272 17.1675L6.93165 17.1653Z" fill="#12F7D6"/>
</svg>
